<svg id="SvgjsSvg1006" width="727" height="721.1500244140625" xmlns="http://www.w3.org/2000/svg" version="1.1" xmlns:xlink="http://www.w3.org/1999/xlink" xmlns:svgjs="http://svgjs.com/svgjs"><defs id="SvgjsDefs1007"></defs><g id="SvgjsG1008" transform="translate(25.041403234004974,611.1329193115234)"><path id="SvgjsPath1009" d="M 0 0L 337.85000228881836 0L 337.85000228881836 40L 0 40Z" stroke="none" fill="none"></path><g id="SvgjsG1010"><text id="SvgjsText1011" font-family="微软雅黑" text-anchor="middle" font-size="19px" width="228" fill="#323232" font-weight="700" align="middle" anchor="middle" family="微软雅黑" size="19px" weight="700" font-style="" y="5.15" transform="rotate(0)"><tspan id="SvgjsTspan1012" dy="23" x="169"><tspan id="SvgjsTspan1013" style="text-decoration:;">由所有线程共享的数据区域</tspan></tspan></text></g></g><g id="SvgjsG1014" transform="translate(25.012496948242188,25)"><path id="SvgjsPath1015" d="M 0 4Q 0 0 4 0L 673 0Q 677 0 677 4L 677 435Q 677 439 673 439L 4 439Q 0 439 0 435Z" stroke="#323232" stroke-width="2" fill-opacity="1" fill="#ccccff"></path><g id="SvgjsG1016"><text id="SvgjsText1017" font-family="微软雅黑" text-anchor="middle" font-size="13px" width="0" fill="#323232" font-weight="400" align="middle" anchor="middle" family="微软雅黑" size="13px" weight="400" font-style="" y="209.55" transform="rotate(0)"></text></g></g><g id="SvgjsG1018" transform="translate(35.01249694824219,82.625)"><path id="SvgjsPath1019" d="M 0 4Q 0 0 4 0L 270 0Q 274 0 274 4L 274 200Q 274 204 270 204L 4 204Q 0 204 0 200Z" stroke="#323232" stroke-width="2" fill-opacity="1" fill="#66ff66"></path><g id="SvgjsG1020"><text id="SvgjsText1021" font-family="微软雅黑" text-anchor="middle" font-size="16px" width="106" fill="#323232" font-weight="700" align="top" anchor="middle" family="微软雅黑" size="16px" weight="700" font-style="" y="-2.4" transform="rotate(0)"><tspan id="SvgjsTspan1022" dy="20" x="137"><tspan id="SvgjsTspan1023" style="text-decoration:;"> </tspan></tspan><tspan id="SvgjsTspan1024" dy="20" x="137"><tspan id="SvgjsTspan1025" style="text-decoration:;">方法区</tspan></tspan><tspan id="SvgjsTspan1026" dy="20" x="137"><tspan id="SvgjsTspan1027" style="text-decoration:;">Method Area</tspan></tspan></text></g></g><g id="SvgjsG1028" transform="translate(70.88749694824219,170.625)"><path id="SvgjsPath1029" d="M 0 4Q 0 0 4 0L 203.25 0Q 207.25 0 207.25 4L 207.25 74Q 207.25 78 203.25 78L 4 78Q 0 78 0 74Z" stroke="#323232" stroke-width="2" fill-opacity="1" fill="#ffff99"></path><g id="SvgjsG1030"><text id="SvgjsText1031" font-family="微软雅黑" text-anchor="middle" font-size="14px" width="163" fill="#323232" font-weight="700" align="middle" anchor="middle" family="微软雅黑" size="14px" weight="700" font-style="" y="19.4" transform="rotate(0)"><tspan id="SvgjsTspan1032" dy="17" x="104"><tspan id="SvgjsTspan1033" style="text-decoration:;">运行时常量池</tspan></tspan><tspan id="SvgjsTspan1034" dy="17" x="104"><tspan id="SvgjsTspan1035" style="text-decoration:;">Runtime Constant Pool</tspan></tspan></text></g></g><g id="SvgjsG1036" transform="translate(335.0124969482422,82.625)"><path id="SvgjsPath1037" d="M 0 4Q 0 0 4 0L 167 0Q 171 0 171 4L 171 357Q 171 361 167 361L 4 361Q 0 361 0 357Z" stroke="#323232" stroke-width="2" fill-opacity="1" fill="#ff8000"></path><g id="SvgjsG1038"><text id="SvgjsText1039" font-family="微软雅黑" text-anchor="middle" font-size="16px" width="76" fill="#323232" font-weight="700" align="top" anchor="middle" family="微软雅黑" size="16px" weight="700" font-style="" y="-2.4" transform="rotate(0)"><tspan id="SvgjsTspan1040" dy="20" x="85.5"><tspan id="SvgjsTspan1041" style="text-decoration:;"> </tspan></tspan><tspan id="SvgjsTspan1042" dy="20" x="85.5"><tspan id="SvgjsTspan1043" style="text-decoration:;">虚拟机栈</tspan></tspan><tspan id="SvgjsTspan1044" dy="20" x="85.5"><tspan id="SvgjsTspan1045" style="text-decoration:;">VM Stack</tspan></tspan></text></g></g><g id="SvgjsG1046" transform="translate(38.01249694824219,309.625)"><path id="SvgjsPath1047" d="M 0 4Q 0 0 4 0L 269 0Q 273 0 273 4L 273 130Q 273 134 269 134L 4 134Q 0 134 0 130Z" stroke="#323232" stroke-width="2" fill-opacity="1" fill="#66ff66"></path><g id="SvgjsG1048"><text id="SvgjsText1049" font-family="微软雅黑" text-anchor="middle" font-size="17px" width="46" fill="#323232" font-weight="700" align="middle" anchor="middle" family="微软雅黑" size="17px" weight="700" font-style="" y="43.45" transform="rotate(0)"><tspan id="SvgjsTspan1050" dy="21" x="136.5"><tspan id="SvgjsTspan1051" style="text-decoration:;">堆</tspan></tspan><tspan id="SvgjsTspan1052" dy="21" x="136.5"><tspan id="SvgjsTspan1053" style="text-decoration:;">Heap</tspan></tspan></text></g></g><g id="SvgjsG1054" transform="translate(360.5124969482422,167.625)"><path id="SvgjsPath1055" d="M 0 0L 127 0L 127 33.85714285714286L 0 33.85714285714286Z" stroke="#323232" stroke-width="2" fill-opacity="1" fill="#ffcccc"></path><g id="SvgjsG1056"><text id="SvgjsText1057" font-family="微软雅黑" text-anchor="middle" font-size="13px" width="26" fill="#323232" font-weight="400" align="middle" anchor="middle" family="微软雅黑" size="13px" weight="400" font-style="" y="6.97857142857143" transform="rotate(0)"><tspan id="SvgjsTspan1058" dy="16" x="63.5"><tspan id="SvgjsTspan1059" style="text-decoration:;">栈帧</tspan></tspan></text></g></g><g id="SvgjsG1060" transform="translate(360.5124969482422,201.48214285714286)"><path id="SvgjsPath1061" d="M 0 0L 127 0L 127 169.28571428571433L 0 169.28571428571433Z" stroke="#323232" stroke-width="2" fill-opacity="1" fill="#ffcccc"></path><g id="SvgjsG1062"><text id="SvgjsText1063" font-family="微软雅黑" text-anchor="middle" font-size="13px" width="0" fill="#323232" font-weight="400" align="middle" anchor="middle" family="微软雅黑" size="13px" weight="400" font-style="" y="74.69285714285716" transform="rotate(0)"></text></g></g><g id="SvgjsG1064" transform="translate(360.5124969482422,370.7678571428571)"><path id="SvgjsPath1065" d="M 0 0L 127 0L 127 33.85714285714286L 0 33.85714285714286Z" stroke="#323232" stroke-width="2" fill-opacity="1" fill="#ffcccc"></path><g id="SvgjsG1066"><text id="SvgjsText1067" font-family="微软雅黑" text-anchor="middle" font-size="13px" width="26" fill="#323232" font-weight="400" align="middle" anchor="middle" family="微软雅黑" size="13px" weight="400" font-style="" y="6.97857142857143" transform="rotate(0)"><tspan id="SvgjsTspan1068" dy="16" x="63.5"><tspan id="SvgjsTspan1069" style="text-decoration:;">栈帧</tspan></tspan></text></g></g><g id="SvgjsG1070" transform="translate(374.0124969482422,230.625)"><path id="SvgjsPath1071" d="M 0 0L 100 0L 100 27.75L 0 27.75Z" stroke="#323232" stroke-width="2" fill-opacity="1" fill="#ff6666"></path><g id="SvgjsG1072"><text id="SvgjsText1073" font-family="微软雅黑" text-anchor="middle" font-size="13px" width="65" fill="#323232" font-weight="700" align="middle" anchor="middle" family="微软雅黑" size="13px" weight="700" font-style="" y="3.925" transform="rotate(0)"><tspan id="SvgjsTspan1074" dy="16" x="50"><tspan id="SvgjsTspan1075" style="text-decoration:;">局部变量表</tspan></tspan></text></g></g><g id="SvgjsG1076" transform="translate(374.0124969482422,258.375)"><path id="SvgjsPath1077" d="M 0 0L 100 0L 100 27.75L 0 27.75Z" stroke="#323232" stroke-width="2" fill-opacity="1" fill="#ff6666"></path><g id="SvgjsG1078"><text id="SvgjsText1079" font-family="微软雅黑" text-anchor="middle" font-size="13px" width="52" fill="#323232" font-weight="700" align="middle" anchor="middle" family="微软雅黑" size="13px" weight="700" font-style="" y="3.925" transform="rotate(0)"><tspan id="SvgjsTspan1080" dy="16" x="50"><tspan id="SvgjsTspan1081" style="text-decoration:;">操作数栈</tspan></tspan></text></g></g><g id="SvgjsG1082" transform="translate(374.0124969482422,286.125)"><path id="SvgjsPath1083" d="M 0 0L 100 0L 100 27.75L 0 27.75Z" stroke="#323232" stroke-width="2" fill-opacity="1" fill="#ff6666"></path><g id="SvgjsG1084"><text id="SvgjsText1085" font-family="微软雅黑" text-anchor="middle" font-size="13px" width="52" fill="#323232" font-weight="700" align="middle" anchor="middle" family="微软雅黑" size="13px" weight="700" font-style="" y="3.925" transform="rotate(0)"><tspan id="SvgjsTspan1086" dy="16" x="50"><tspan id="SvgjsTspan1087" style="text-decoration:;">动态链接</tspan></tspan></text></g></g><g id="SvgjsG1088" transform="translate(374.0124969482422,313.875)"><path id="SvgjsPath1089" d="M 0 0L 100 0L 100 27.75L 0 27.75Z" stroke="#323232" stroke-width="2" fill-opacity="1" fill="#ff6666"></path><g id="SvgjsG1090"><text id="SvgjsText1091" font-family="微软雅黑" text-anchor="middle" font-size="13px" width="52" fill="#323232" font-weight="700" align="middle" anchor="middle" family="微软雅黑" size="13px" weight="700" font-style="" y="3.925" transform="rotate(0)"><tspan id="SvgjsTspan1092" dy="16" x="50"><tspan id="SvgjsTspan1093" style="text-decoration:;">方法出口</tspan></tspan></text></g></g><g id="SvgjsG1094" transform="translate(534.0124969482422,82.625)"><path id="SvgjsPath1095" d="M 0 4Q 0 0 4 0L 154 0Q 158 0 158 4L 158 199.5Q 158 203.5 154 203.5L 4 203.5Q 0 203.5 0 199.5Z" stroke="#323232" stroke-width="2" fill-opacity="1" fill="#ff8000"></path><g id="SvgjsG1096"><text id="SvgjsText1097" font-family="微软雅黑" text-anchor="middle" font-size="17px" width="129" fill="#323232" font-weight="700" align="middle" anchor="middle" family="微软雅黑" size="17px" weight="700" font-style="" y="68.2" transform="rotate(0)"><tspan id="SvgjsTspan1098" dy="21" x="79"><tspan id="SvgjsTspan1099" style="text-decoration:;">本地方法栈</tspan></tspan><tspan id="SvgjsTspan1100" dy="21" x="79"><tspan id="SvgjsTspan1101" style="text-decoration:;">Native Method</tspan></tspan><tspan id="SvgjsTspan1102" dy="21" x="79"><tspan id="SvgjsTspan1103" style="text-decoration:;">Stack</tspan></tspan></text></g></g><g id="SvgjsG1104" transform="translate(534.0124969482422,313.875)"><path id="SvgjsPath1105" d="M 0 4Q 0 0 4 0L 154 0Q 158 0 158 4L 158 125.75Q 158 129.75 154 129.75L 4 129.75Q 0 129.75 0 125.75Z" stroke="#323232" stroke-width="2" fill-opacity="1" fill="#ff8000"></path><g id="SvgjsG1106"><text id="SvgjsText1107" font-family="微软雅黑" text-anchor="middle" font-size="15px" width="130" fill="#323232" font-weight="700" align="middle" anchor="middle" family="微软雅黑" size="15px" weight="700" font-style="" y="35.125" transform="rotate(0)"><tspan id="SvgjsTspan1108" dy="18" x="79"><tspan id="SvgjsTspan1109" style="text-decoration:;">程序计数器</tspan></tspan><tspan id="SvgjsTspan1110" dy="18" x="79"><tspan id="SvgjsTspan1111" style="text-decoration:;">Program Counter</tspan></tspan><tspan id="SvgjsTspan1112" dy="18" x="79"><tspan id="SvgjsTspan1113" style="text-decoration:;">Register</tspan></tspan></text></g></g><g id="SvgjsG1114" transform="translate(38.01249694824219,533.625)"><path id="SvgjsPath1115" d="M 0 4Q 0 0 4 0L 186 0Q 190 0 190 4L 190 47Q 190 51 186 51L 4 51Q 0 51 0 47Z" stroke="#323232" stroke-width="2" fill-opacity="1" fill="#cc99ff"></path><g id="SvgjsG1116"><text id="SvgjsText1117" font-family="微软雅黑" text-anchor="middle" font-size="15px" width="60" fill="#323232" font-weight="700" align="middle" anchor="middle" family="微软雅黑" size="15px" weight="700" font-style="" y="14.25" transform="rotate(0)"><tspan id="SvgjsTspan1118" dy="18" x="95"><tspan id="SvgjsTspan1119" style="text-decoration:;">执行引擎</tspan></tspan></text></g></g><g id="SvgjsG1120" transform="translate(350.0124969482422,533.875)"><path id="SvgjsPath1121" d="M 0 4Q 0 0 4 0L 130.5 0Q 134.5 0 134.5 4L 134.5 46.5Q 134.5 50.5 130.5 50.5L 4 50.5Q 0 50.5 0 46.5Z" stroke="#323232" stroke-width="2" fill-opacity="1" fill="#b266ff"></path><g id="SvgjsG1122"><text id="SvgjsText1123" font-family="微软雅黑" text-anchor="middle" font-size="15px" width="75" fill="#323232" font-weight="700" align="middle" anchor="middle" family="微软雅黑" size="15px" weight="700" font-style="" y="14" transform="rotate(0)"><tspan id="SvgjsTspan1124" dy="18" x="67.5"><tspan id="SvgjsTspan1125" style="text-decoration:;">本地库接口</tspan></tspan></text></g></g><g id="SvgjsG1126" transform="translate(588.0124969482422,533.875)"><path id="SvgjsPath1127" d="M 0 4Q 0 0 4 0L 100 0Q 104 0 104 4L 104 46.5Q 104 50.5 100 50.5L 4 50.5Q 0 50.5 0 46.5Z" stroke="#323232" stroke-width="2" fill-opacity="1" fill="#e5ccff"></path><g id="SvgjsG1128"><text id="SvgjsText1129" font-family="微软雅黑" text-anchor="middle" font-size="13px" width="65" fill="#323232" font-weight="400" align="middle" anchor="middle" family="微软雅黑" size="13px" weight="400" font-style="" y="15.3" transform="rotate(0)"><tspan id="SvgjsTspan1130" dy="16" x="52"><tspan id="SvgjsTspan1131" style="text-decoration:;">本地方法库</tspan></tspan></text></g></g><g id="SvgjsG1132" transform="translate(254.1374969482422,542.375)"><path id="SvgjsPath1133" d="M 0 11.055L 54.125 11.055L 54.125 0L 70.875 16.75L 54.125 33.5L 54.125 22.445L 0 22.445L 0 11.055Z" stroke="#000000" stroke-width="2" fill-opacity="1" fill="#000000"></path><g id="SvgjsG1134"><text id="SvgjsText1135" font-family="微软雅黑" text-anchor="middle" font-size="13px" width="0" fill="#323232" font-weight="400" align="middle" anchor="middle" family="微软雅黑" size="13px" weight="400" font-style="" y="6.8" transform="rotate(0)"></text></g></g><g id="SvgjsG1136" transform="translate(502.1374969482422,542.375)"><path id="SvgjsPath1137" d="M 0 11.055L 54.125 11.055L 54.125 0L 70.875 16.75L 54.125 33.5L 54.125 22.445L 0 22.445L 0 11.055Z" stroke="#000000" stroke-width="2" fill-opacity="1" fill="#000000"></path><g id="SvgjsG1138"><text id="SvgjsText1139" font-family="微软雅黑" text-anchor="middle" font-size="13px" width="0" fill="#323232" font-weight="400" align="middle" anchor="middle" family="微软雅黑" size="13px" weight="400" font-style="" y="6.8" transform="rotate(0)"></text></g></g><g id="SvgjsG1140" transform="translate(70.88749694824219,475)"><path id="SvgjsPath1141" d="M 15.0625 0L 30.125 15.0625L 20.18375 15.0625L 20.18375 46.625L 9.94125 46.625L 9.94125 15.0625L 0 15.0625L 15.0625 0Z" stroke="#000000" stroke-width="2" fill-opacity="1" fill="#000000"></path><g id="SvgjsG1142"><text id="SvgjsText1143" font-family="微软雅黑" text-anchor="middle" font-size="13px" width="0" fill="#323232" font-weight="400" align="middle" anchor="middle" family="微软雅黑" size="13px" weight="400" font-style="" y="15.693749999999998" transform="rotate(0)"></text></g></g><g id="SvgjsG1144" transform="translate(368.5124969482422,474.99999618530273)"><path id="SvgjsPath1145" d="M 15 0L 30 15L 20.1 15L 20.1 46.62500762939453L 9.9 46.62500762939453L 9.9 15L 0 15L 15 0Z" stroke="#000000" stroke-width="2" fill-opacity="1" fill="#000000"></path><g id="SvgjsG1146"><text id="SvgjsText1147" font-family="微软雅黑" text-anchor="middle" font-size="13px" width="0" fill="#323232" font-weight="400" align="middle" anchor="middle" family="微软雅黑" size="13px" weight="400" font-style="" y="15.693754196166992" transform="rotate(0)"></text></g></g><g id="SvgjsG1148" transform="translate(172.0124969482422,475.15624618530273)"><path id="SvgjsPath1149" d="M 9.9 0L 20.1 0L 20.1 31.31250762939453L 30 31.31250762939453L 15 46.31250762939453L 0 31.31250762939453L 9.9 31.31250762939453L 9.9 0Z" stroke="#000000" stroke-width="2" fill-opacity="1" fill="#000000"></path><g id="SvgjsG1150"><text id="SvgjsText1151" font-family="微软雅黑" text-anchor="middle" font-size="13px" width="0" fill="#323232" font-weight="400" align="middle" anchor="middle" family="微软雅黑" size="13px" weight="400" font-style="" y="10.89062843322754" transform="rotate(0)"></text></g></g><g id="SvgjsG1152" transform="translate(432.0124969482422,475.15624618530273)"><path id="SvgjsPath1153" d="M 9.9 0L 20.1 0L 20.1 31.31250762939453L 30 31.31250762939453L 15 46.31250762939453L 0 31.31250762939453L 9.9 31.31250762939453L 9.9 0Z" stroke="#000000" stroke-width="2" fill-opacity="1" fill="#000000"></path><g id="SvgjsG1154"><text id="SvgjsText1155" font-family="微软雅黑" text-anchor="middle" font-size="13px" width="0" fill="#323232" font-weight="400" align="middle" anchor="middle" family="微软雅黑" size="13px" weight="400" font-style="" y="10.89062843322754" transform="rotate(0)"></text></g></g><g id="SvgjsG1156" transform="translate(218.7624969482422,29.62499237060547)"><path id="SvgjsPath1157" d="M 0 0L 289.5 0L 289.5 43L 0 43Z" stroke="none" fill="none"></path><g id="SvgjsG1158"><text id="SvgjsText1159" font-family="微软雅黑" text-anchor="middle" font-size="29px" width="174" fill="#323232" font-weight="700" align="middle" anchor="middle" family="微软雅黑" size="29px" weight="700" font-style="" y="-0.8499999999999996" transform="rotate(0)"><tspan id="SvgjsTspan1160" dy="36" x="145"><tspan id="SvgjsTspan1161" style="text-decoration:;">运行时数据区</tspan></tspan></text></g></g><g id="SvgjsG1162" transform="translate(35.31874752044678,615.5250091552734)"><path id="SvgjsPath1163" d="M 0 0L 31.25 0L 31.25 31.25L 0 31.25Z" stroke="#323232" stroke-width="2" fill-opacity="1" fill="#66ff66"></path><g id="SvgjsG1164"><text id="SvgjsText1165" font-family="微软雅黑" text-anchor="middle" font-size="13px" width="0" fill="#323232" font-weight="400" align="middle" anchor="middle" family="微软雅黑" size="13px" weight="400" font-style="" y="5.675" transform="rotate(0)"></text></g></g><g id="SvgjsG1166" transform="translate(35.21913832426071,660.5250091552734)"><path id="SvgjsPath1167" d="M 0 0L 31.25 0L 31.25 31.25L 0 31.25Z" stroke="#323232" stroke-width="2" fill-opacity="1" fill="#ff8000"></path><g id="SvgjsG1168"><text id="SvgjsText1169" font-family="微软雅黑" text-anchor="middle" font-size="13px" width="0" fill="#323232" font-weight="400" align="middle" anchor="middle" family="微软雅黑" size="13px" weight="400" font-style="" y="5.675" transform="rotate(0)"></text></g></g><g id="SvgjsG1170" transform="translate(46.476950109004974,656.1500091552734)"><path id="SvgjsPath1171" d="M 0 0L 240.60000228881836 0L 240.60000228881836 40L 0 40Z" stroke="none" fill="none"></path><g id="SvgjsG1172"><text id="SvgjsText1173" font-family="微软雅黑" text-anchor="middle" font-size="19px" width="171" fill="#323232" font-weight="700" align="middle" anchor="middle" family="微软雅黑" size="19px" weight="700" font-style="" y="5.15" transform="rotate(0)"><tspan id="SvgjsTspan1174" dy="23" x="120.5"><tspan id="SvgjsTspan1175" style="text-decoration:;">线程隔离的数据区域</tspan></tspan></text></g></g></svg>